<svg xmlns="http://www.w3.org/2000/svg" width="75.893" height="88.828" viewBox="0 0 75.893 88.828"><defs><style>.a{fill:#fff;}</style></defs><g transform="translate(-143.003 -83.004)"><g transform="translate(143.003 83.004)"><path class="a" d="M177.5,130.751a8.545,8.545,0,0,0-.9-2.733,4.214,4.214,0,0,0-3.073-1.132c-.223-.009-4.117-.44-4.784-.465q-3.141-.009-3.175,1.621-.249,5.164-.411,7.8-.133,3.257-.467,9.767c-.074,1.826-.14,3.437-.2,4.865a1.487,1.487,0,0,0,1.494,1.547H180.5a1.492,1.492,0,0,0,1.448-1.87C181.337,147.84,178.126,133.663,177.5,130.751Z" transform="translate(-133.198 -63.193)"/><path class="a" d="M176.426,119.964a1.55,1.55,0,0,0,1.488-1.784q-.492-3.314-1.679-10.934a1.655,1.655,0,0,0-1.37-1.628c-.4-.089-6.112.082-6.693.134q-2.761.288-2.9,1.576c-.012.186-1.37,10.376-1.149,11.352a1.542,1.542,0,0,0,1.478,1.139Q173.5,120.05,176.426,119.964Z" transform="translate(-133.379 -72.697)"/><path class="a" d="M212.536,87.2c-1.739-2.946-5.282-4.517-11.758-4.139-1.976.108-43.217,4.308-48.633,5.49-6.234,1.73-5.933,9.2-6.274,16.175q-.308,5.924-.818,18.177-.614,12.008-.92,18.176-.511,12.659-1.124,25.236-.205,4.624,6.646,5.436.138.055,5.147.073a1.414,1.414,0,0,0,1.417-1.215q.915-6.647,4.8-35.064,4.008-29.37,4.148-30.544.441-2.851,5.853-3.88c1.172-.216,15.609-2.358,16.865-2.5q6.129-.773,7.724,1.593c1.268,1.714,8.841,61.642,9.45,66.239.227,1.616.408,2.988.543,4.131a1.4,1.4,0,0,0,1.417,1.236,31.54,31.54,0,0,0,7.865-.721q4.295-1.3,3.987-5.843C217.513,148.11,214.357,90.28,212.536,87.2Z" transform="translate(-143.003 -83.004)"/></g></g></svg>